<?xml version="1.0" encoding="UTF-8" standalone="no"?>
<!-- Created with Inkscape (http://www.inkscape.org/) -->

<svg
   xmlns:dc="http://purl.org/dc/elements/1.1/"
   xmlns:cc="http://creativecommons.org/ns#"
   xmlns:rdf="http://www.w3.org/1999/02/22-rdf-syntax-ns#"
   xmlns:svg="http://www.w3.org/2000/svg"
   xmlns="http://www.w3.org/2000/svg"
   xmlns:sodipodi="http://sodipodi.sourceforge.net/DTD/sodipodi-0.dtd"
   xmlns:inkscape="http://www.inkscape.org/namespaces/inkscape"
   version="1.1"
   id="svg2"
   xml:space="preserve"
   width="93.249329"
   height="93.249329"
   viewBox="0 0 93.249328 93.24933"
   sodipodi:docname="opted_logo_stylized_blue.svg"
   inkscape:version="0.92.5 (2060ec1f9f, 2020-04-08)"><metadata
     id="metadata8"><rdf:RDF><cc:Work
         rdf:about=""><dc:format>image/svg+xml</dc:format><dc:type
           rdf:resource="http://purl.org/dc/dcmitype/StillImage" /><dc:title></dc:title></cc:Work></rdf:RDF></metadata><defs
     id="defs6"><clipPath
       clipPathUnits="userSpaceOnUse"
       id="clipPath22"><path
         d="M 0,85.299 H 84.611 V 0 H 0 Z"
         id="path20"
         inkscape:connector-curvature="0" /></clipPath></defs><sodipodi:namedview
     pagecolor="#ffffff"
     bordercolor="#666666"
     borderopacity="1"
     objecttolerance="10"
     gridtolerance="10"
     guidetolerance="10"
     inkscape:pageopacity="0"
     inkscape:pageshadow="2"
     inkscape:window-width="1920"
     inkscape:window-height="948"
     id="namedview4"
     showgrid="false"
     inkscape:zoom="5.8691107"
     inkscape:cx="42.809593"
     inkscape:cy="47.508949"
     inkscape:window-x="0"
     inkscape:window-y="27"
     inkscape:window-maximized="1"
     inkscape:current-layer="text14"
     fit-margin-top="0"
     fit-margin-left="0"
     fit-margin-right="0"
     fit-margin-bottom="0" /><g
     id="g10"
     inkscape:groupmode="layer"
     inkscape:label="opted_logo_stylized_bw"
     transform="matrix(1.3333333,0,0,-1.3333333,-10.977066,104.25306)"><g
       aria-label="OPTED"
       transform="scale(0.97700472,-1.0235365)"
       style="font-variant:normal;font-weight:900;font-stretch:normal;font-size:10.43802452px;font-family:'Arial Black';-inkscape-font-specification:Arial-Black;writing-mode:lr-tb;fill:#231f20;fill-opacity:1;fill-rule:nonzero;stroke:none;stroke-width:0.97700471"
       id="text14"><path
         d="m 28.986412,-37.805639 c 2.691,0 4.381,-1.794 4.381,-4.615 0,-2.34 -1.43,-4.433 -4.251,-4.433 -2.691,0 -4.355,2.028 -4.355,4.576 0,2.431 1.495,4.472 4.212,4.472 z m 0.078,-1.859 c -1.131,0 -1.833,-1.092 -1.82,-2.665 0,-1.521 0.689,-2.665 1.82,-2.665 1.144,0 1.82,1.144 1.82,2.652 0,1.586 -0.663,2.678 -1.794,2.678 z"
         style="font-style:normal;font-variant:normal;font-weight:900;font-stretch:normal;font-size:13px;font-family:'Myriad Pro';-inkscape-font-specification:'Myriad Pro Heavy';stroke-width:0.97700471"
         id="path4601"
         inkscape:connector-curvature="0" /><path
         d="m 34.615406,-37.948639 h 2.327 v -2.977 c 0.143,0 0.338,0.026 0.572,0.026 1.183,0 2.21,-0.286 2.912,-0.91 0.559,-0.507 0.858,-1.274 0.858,-2.158 0,-0.897 -0.403,-1.664 -1.001,-2.106 -0.611,-0.468 -1.521,-0.702 -2.782,-0.702 -1.326,0 -2.249,0.091 -2.886,0.195 z m 2.327,-7.007 c 0.117,-0.026 0.351,-0.052 0.689,-0.052 0.897,0 1.326,0.442 1.326,1.092 0,0.754 -0.572,1.222 -1.482,1.222 -0.247,0 -0.403,-0.013 -0.533,-0.026 z"
         style="font-style:normal;font-variant:normal;font-weight:900;font-stretch:normal;font-size:13px;font-family:'Myriad Pro';-inkscape-font-specification:'Myriad Pro Heavy';stroke-width:0.97700471"
         id="path4603"
         inkscape:connector-curvature="0" /><path
         d="m 44.144397,-37.948639 h 2.353 v -6.786 h 2.275 v -1.976 h -6.864 v 1.976 h 2.236 z"
         style="font-style:normal;font-variant:normal;font-weight:900;font-stretch:normal;font-size:13px;font-family:'Myriad Pro';-inkscape-font-specification:'Myriad Pro Heavy';stroke-width:0.97700471"
         id="path4605"
         inkscape:connector-curvature="0" /><path
         d="m 55.350393,-43.382639 h -3.146 v -1.404 h 3.341 v -1.924 h -5.694 v 8.762 h 5.876 v -1.924 h -3.523 v -1.612 h 3.146 z"
         style="font-style:normal;font-variant:normal;font-weight:900;font-stretch:normal;font-size:13px;font-family:'Myriad Pro';-inkscape-font-specification:'Myriad Pro Heavy';stroke-width:0.97700471"
         id="path4607"
         inkscape:connector-curvature="0" /><path
         d="m 57.027369,-38.000639 c 0.455,0.078 1.209,0.156 2.34,0.156 1.716,0 3.159,-0.325 4.121,-1.079 0.845,-0.663 1.521,-1.82 1.521,-3.614 0,-1.612 -0.624,-2.704 -1.586,-3.367 -0.858,-0.598 -1.924,-0.871 -3.601,-0.871 -1.04,0 -2.041,0.065 -2.795,0.195 z m 2.353,-6.929 c 0.117,-0.026 0.351,-0.052 0.715,-0.052 1.404,0 2.431,0.806 2.431,2.522 0,1.976 -1.131,2.821 -2.652,2.795 -0.156,0 -0.377,0 -0.494,-0.026 z"
         style="font-style:normal;font-variant:normal;font-weight:900;font-stretch:normal;font-size:13px;font-family:'Myriad Pro';-inkscape-font-specification:'Myriad Pro Heavy';stroke-width:0.97700471"
         id="path4609"
         inkscape:connector-curvature="0" /></g><g
       id="g16"><g
         id="g18"
         clip-path="url(#clipPath22)"><g
           id="g24"
           transform="translate(43.2018,78.1898)"><path
             d="m 0,0 c -19.313,0 -34.969,-15.656 -34.969,-34.969 0,-19.311 15.656,-34.968 34.969,-34.968 19.312,0 34.968,15.657 34.968,34.968 C 34.968,-15.656 19.312,0 0,0 m 0,-5 c 16.524,0 29.968,-13.444 29.968,-29.969 0,-16.524 -13.444,-29.968 -29.968,-29.968 -16.525,0 -29.969,13.444 -29.969,29.968 C -29.969,-18.444 -16.525,-5 0,-5"
             style="fill:#0e64ad;fill-opacity:1;fill-rule:nonzero;stroke:none"
             id="path26"
             inkscape:connector-curvature="0" /></g><g
           id="g28"
           transform="translate(37.8132,69.5906)"><path
             d="m 0,0 c -2.506,-0.885 -14.032,-5.244 -18.459,-16.624 -4.973,-12.784 0.723,-21.806 3.21,-25.911 0.465,-0.767 -5.067,13.25 -0.023,24.944 C -12.428,-10.999 -8.24,-5.82 0,0"
             style="fill:#0e64ad;fill-opacity:1;fill-rule:nonzero;stroke:none"
             id="path30"
             inkscape:connector-curvature="0" /></g><g
           id="g32"
           transform="translate(67.7936,50.387)"><path
             d="m 0,0 c 0,0 2,-6.123 0.344,-12.898 -1.877,-7.68 -7.452,-12.554 -7.452,-12.554 0,0 3.525,4.819 5.618,12.898 C 0.386,-5.31 0,0 0,0"
             style="fill:#0e64ad;fill-opacity:1;fill-rule:nonzero;stroke:none"
             id="path34"
             inkscape:connector-curvature="0" /></g></g></g></g></svg>