<?xml version="1.0" encoding="UTF-8" standalone="no"?>
<!-- Created with Inkscape (http://www.inkscape.org/) -->

<svg
   xmlns:dc="http://purl.org/dc/elements/1.1/"
   xmlns:cc="http://creativecommons.org/ns#"
   xmlns:rdf="http://www.w3.org/1999/02/22-rdf-syntax-ns#"
   xmlns:svg="http://www.w3.org/2000/svg"
   xmlns="http://www.w3.org/2000/svg"
   xmlns:sodipodi="http://sodipodi.sourceforge.net/DTD/sodipodi-0.dtd"
   xmlns:inkscape="http://www.inkscape.org/namespaces/inkscape"
   version="1.1"
   id="svg2"
   xml:space="preserve"
   width="112.81533"
   height="113.73253"
   viewBox="0 0 112.81533 113.73253"
   sodipodi:docname="opted_logo_stylized_bw.svg"
   inkscape:version="0.92.5 (2060ec1f9f, 2020-04-08)"><metadata
     id="metadata8"><rdf:RDF><cc:Work
         rdf:about=""><dc:format>image/svg+xml</dc:format><dc:type
           rdf:resource="http://purl.org/dc/dcmitype/StillImage" /><dc:title></dc:title></cc:Work></rdf:RDF></metadata><defs
     id="defs6"><clipPath
       clipPathUnits="userSpaceOnUse"
       id="clipPath22"><path
         d="M 0,85.299 H 84.611 V 0 H 0 Z"
         id="path20"
         inkscape:connector-curvature="0" /></clipPath></defs><sodipodi:namedview
     pagecolor="#ffffff"
     bordercolor="#666666"
     borderopacity="1"
     objecttolerance="10"
     gridtolerance="10"
     guidetolerance="10"
     inkscape:pageopacity="0"
     inkscape:pageshadow="2"
     inkscape:window-width="640"
     inkscape:window-height="480"
     id="namedview4"
     showgrid="false"
     inkscape:zoom="2.9345554"
     inkscape:cx="54.165639"
     inkscape:cy="61.546932"
     inkscape:window-x="467"
     inkscape:window-y="285"
     inkscape:window-maximized="0"
     inkscape:current-layer="g10" /><g
     id="g10"
     inkscape:groupmode="layer"
     inkscape:label="opted_logo_stylized_bw"
     transform="matrix(1.3333333,0,0,-1.3333333,0,113.73253)"><text
       transform="matrix(0.95453822,0,0,-1,23.9409,38.6611)"
       style="font-variant:normal;font-weight:900;font-stretch:normal;font-size:10.68369961px;font-family:'Arial Black';-inkscape-font-specification:Arial-Black;writing-mode:lr-tb;fill:#231f20;fill-opacity:1;fill-rule:nonzero;stroke:none"
       id="text14"><tspan
         x="0 8.8995218 16.613153 24.326784 32.040417"
         y="0"
         sodipodi:role="line"
         id="tspan12">OPTED</tspan></text>
<g
       id="g16"><g
         id="g18"
         clip-path="url(#clipPath22)"><g
           id="g24"
           transform="translate(43.2018,78.1898)"><path
             d="m 0,0 c -19.313,0 -34.969,-15.656 -34.969,-34.969 0,-19.311 15.656,-34.968 34.969,-34.968 19.312,0 34.968,15.657 34.968,34.968 C 34.968,-15.656 19.312,0 0,0 m 0,-5 c 16.524,0 29.968,-13.444 29.968,-29.969 0,-16.524 -13.444,-29.968 -29.968,-29.968 -16.525,0 -29.969,13.444 -29.969,29.968 C -29.969,-18.444 -16.525,-5 0,-5"
             style="fill:#231f20;fill-opacity:1;fill-rule:nonzero;stroke:none"
             id="path26"
             inkscape:connector-curvature="0" /></g><g
           id="g28"
           transform="translate(37.8132,69.5906)"><path
             d="m 0,0 c -2.506,-0.885 -14.032,-5.244 -18.459,-16.624 -4.973,-12.784 0.723,-21.806 3.21,-25.911 0.465,-0.767 -5.067,13.25 -0.023,24.944 C -12.428,-10.999 -8.24,-5.82 0,0"
             style="fill:#231f20;fill-opacity:1;fill-rule:nonzero;stroke:none"
             id="path30"
             inkscape:connector-curvature="0" /></g><g
           id="g32"
           transform="translate(67.7936,50.387)"><path
             d="m 0,0 c 0,0 2,-6.123 0.344,-12.898 -1.877,-7.68 -7.452,-12.554 -7.452,-12.554 0,0 3.525,4.819 5.618,12.898 C 0.386,-5.31 0,0 0,0"
             style="fill:#231f20;fill-opacity:1;fill-rule:nonzero;stroke:none"
             id="path34"
             inkscape:connector-curvature="0" /></g></g></g></g></svg>